<?xml version="1.0" standalone="no"?>
<!DOCTYPE svg PUBLIC "-//W3C//DTD SVG 20010904//EN"
 "http://www.w3.org/TR/2001/REC-SVG-20010904/DTD/svg10.dtd">
<svg version="1.0" xmlns="http://www.w3.org/2000/svg"
 width="920.000000pt" height="600.000000pt" viewBox="0 0 920.000000 600.000000"
 preserveAspectRatio="xMidYMid meet">

<g transform="translate(0.000000,600.000000) scale(0.100000,-0.100000)"
fill="#000000" stroke="none">
<path d="M4330 5934 c-608 -48 -1140 -267 -1610 -662 -123 -103 -346 -331
-441 -452 -332 -421 -519 -854 -593 -1370 -38 -268 -38 -623 0 -890 86 -601
327 -1102 751 -1559 265 -285 569 -510 908 -672 243 -116 510 -196 802 -240
129 -20 186 -23 453 -23 266 0 324 3 450 22 644 100 1169 368 1635 836 409
412 667 871 785 1397 56 248 64 335 64 684 0 294 -3 345 -22 465 -103 623
-356 1126 -791 1574 -650 668 -1450 966 -2391 890z m540 -149 c538 -43 1048
-246 1480 -591 116 -93 370 -348 464 -466 319 -404 500 -828 573 -1338 27
-194 24 -635 -6 -829 -94 -611 -350 -1109 -797 -1555 -393 -392 -864 -651
-1375 -755 -210 -43 -335 -55 -599 -55 -331 0 -538 27 -818 109 -828 240
-1552 936 -1839 1768 -98 283 -143 572 -143 917 0 678 193 1238 601 1745 125
156 372 396 524 510 555 418 1198 597 1935 540z"/>
<path d="M4355 5329 c-547 -57 -1008 -280 -1402 -680 -201 -204 -327 -378
-443 -614 -165 -332 -238 -681 -227 -1085 10 -380 75 -656 227 -965 118 -239
240 -409 443 -614 367 -371 782 -586 1282 -666 137 -22 474 -31 615 -16 561
59 1017 276 1412 674 362 364 577 783 654 1273 22 141 29 454 15 611 -56 583
-310 1086 -755 1493 -379 346 -812 539 -1325 590 -119 12 -379 11 -496 -1z
m126 -263 c37 -8 86 -24 109 -36 89 -45 164 -148 195 -266 8 -32 21 -61 28
-63 6 -2 34 -26 61 -52 l49 -49 -7 -69 c-15 -154 -65 -303 -106 -316 -33 -11
-86 13 -126 57 -47 53 -116 199 -122 261 -4 46 -3 49 46 98 l51 51 -28 62
c-52 115 -150 176 -281 176 -95 0 -158 -25 -215 -84 -71 -72 -99 -150 -100
-276 0 -125 29 -194 120 -279 128 -120 285 -180 658 -251 219 -42 425 -124
517 -207 57 -51 114 -158 130 -242 17 -89 12 -239 -9 -323 -67 -263 -296 -485
-595 -577 -37 -12 -81 -21 -97 -21 -29 0 -29 1 -29 58 0 31 -3 73 -6 92 l-5
35 83 42 c157 79 267 194 318 330 63 169 52 313 -32 408 -82 93 -175 137 -416
196 -346 85 -533 176 -679 333 -204 217 -219 571 -32 755 64 63 180 122 289
146 41 9 80 18 85 20 23 8 85 4 146 -9z m589 -1473 c29 -59 39 -206 20 -292
-38 -170 -198 -352 -350 -397 l-50 -15 0 -325 c1 -178 -2 -329 -5 -334 -9 -14
-86 -22 -129 -13 l-38 8 1 140 c0 77 4 219 7 316 l7 175 -107 12 c-261 31
-508 145 -814 374 -80 60 -170 122 -201 137 -85 43 -226 88 -353 111 -148 28
-144 27 -189 67 -68 61 -64 63 164 64 111 1 504 5 872 8 369 4 776 8 906 9
l235 2 24 -47z m1335 36 c4 -5 -1 -19 -11 -30 -39 -44 -175 -89 -358 -119
-138 -22 -288 -110 -520 -304 -26 -21 -49 -36 -52 -33 -3 3 4 49 16 104 31
142 36 244 16 321 -9 35 -16 66 -16 68 0 10 919 4 925 -7z m-1925 -904 l0 -90
-36 -20 c-47 -25 -110 -97 -125 -142 -17 -53 -6 -126 27 -180 22 -36 44 -55
89 -78 57 -29 63 -30 194 -30 153 0 210 12 252 54 63 63 55 158 -16 181 -32
11 -55 10 -107 -6 -13 -4 -19 4 -27 33 -20 70 -15 91 27 112 160 81 429 32
479 -88 19 -46 12 -143 -16 -206 -47 -107 -184 -194 -390 -247 -145 -38 -300
-43 -396 -14 -139 42 -253 130 -329 255 l-38 62 4 117 c3 104 7 123 32 171 50
97 159 179 296 222 74 23 80 15 80 -106z m-2 -348 c3 -63 1 -69 -25 -92 -36
-31 -44 -31 -76 3 -31 32 -33 51 -12 92 15 29 80 72 100 66 6 -1 11 -33 13
-69z m-195 -348 c113 -57 117 -62 117 -132 0 -132 77 -188 327 -236 134 -27
264 -67 305 -95 36 -24 86 -106 66 -106 -7 0 -49 14 -93 31 -70 27 -99 32
-228 41 -360 22 -501 90 -584 281 -31 73 -27 190 9 235 13 16 9 17 81 -19z
m360 -75 l37 -6 0 -124 0 -124 -32 0 c-18 0 -56 11 -85 24 l-52 25 0 111 -1
111 48 -6 c26 -3 64 -8 85 -11z m-28 -439 c22 -4 50 -13 63 -21 22 -15 23 -19
16 -94 -7 -79 -6 -80 24 -108 35 -33 85 -50 185 -62 44 -5 113 -25 176 -49 81
-33 126 -44 205 -52 151 -15 226 -39 226 -73 0 -14 -36 -15 -1327 -32 -430 -6
-473 -5 -473 10 0 28 77 56 224 81 104 17 171 35 243 63 57 23 123 42 156 45
33 3 80 16 105 29 56 28 71 60 71 160 1 88 13 120 43 114 13 -3 41 -8 63 -11z"/>
</g>
</svg>
