<?xml version="1.0" standalone="no"?>
<!DOCTYPE svg PUBLIC "-//W3C//DTD SVG 20010904//EN"
 "http://www.w3.org/TR/2001/REC-SVG-20010904/DTD/svg10.dtd">
<svg version="1.0" xmlns="http://www.w3.org/2000/svg"
 width="1600.000000pt" height="1600.000000pt" viewBox="0 0 1600.000000 1600.000000"
 preserveAspectRatio="xMidYMid meet">

<g transform="translate(0.000000,1600.000000) scale(0.100000,-0.100000)"
fill="#000000" stroke="none">
<path d="M7673 13389 c-433 -39 -890 -181 -1278 -398 -630 -354 -1114 -892
-1393 -1551 -119 -282 -191 -564 -227 -889 -23 -204 -16 -581 14 -783 168
-1129 925 -2075 2001 -2501 236 -94 499 -161 778 -198 189 -26 569 -31 752
-10 626 70 1175 292 1670 675 134 104 424 391 529 524 618 785 833 1781 591
2742 -218 862 -808 1605 -1610 2028 -375 198 -800 324 -1220 362 -132 11 -471
11 -607 -1z m1220 -1124 c106 -27 199 -102 248 -197 31 -62 52 -139 41 -150
-4 -4 -39 4 -77 18 -197 72 -248 87 -264 77 -18 -11 -40 -106 -41 -176 0 -80
26 -113 163 -207 42 -29 77 -58 77 -66 0 -7 -29 -27 -65 -44 l-65 -31 -172 89
c-95 49 -209 108 -254 131 -73 37 -82 45 -92 80 -36 119 10 276 110 373 106
103 247 141 391 103z m-348 -666 c99 -28 148 -89 180 -224 59 -253 94 -378
109 -393 12 -12 41 -18 206 -41 36 -5 85 -13 110 -16 43 -7 45 -6 57 24 16 45
7 42 333 87 69 10 134 15 144 11 20 -8 19 -25 -5 -192 -34 -240 -32 -230 -64
-233 -17 -2 -63 2 -103 9 -40 6 -75 9 -79 5 -6 -6 17 -94 85 -321 17 -55 59
-198 94 -317 35 -119 66 -219 69 -222 3 -3 64 -7 135 -10 99 -2 143 -8 187
-24 87 -32 150 -69 198 -118 56 -57 72 -43 -196 -184 -55 -29 -113 -60 -130
-70 -16 -10 -84 -46 -150 -80 -66 -35 -163 -86 -215 -115 -52 -29 -140 -76
-195 -105 -55 -29 -142 -75 -193 -102 -51 -28 -99 -47 -107 -44 -11 4 -15 22
-15 66 l0 60 -1342 0 c-739 0 -1353 3 -1366 6 -22 6 -23 11 -20 63 l3 56 -184
3 c-115 1 -189 7 -198 13 -7 7 -13 22 -13 34 0 45 20 50 239 55 l205 5 29 42
c15 24 25 47 22 53 -4 6 -194 10 -544 10 -404 0 -540 3 -549 12 -18 18 -14 53
9 74 20 18 47 19 603 22 l581 3 38 36 c20 21 37 43 37 50 0 10 -75 13 -381 13
-243 0 -387 4 -400 10 -19 11 -25 45 -11 66 21 32 53 34 504 34 l454 0 87 47
c48 25 85 49 82 52 -4 3 -131 4 -283 3 -291 -3 -323 1 -330 42 -2 10 6 29 19
42 l22 24 323 0 323 0 27 25 27 25 588 0 c672 0 620 9 554 -91 -108 -159 -156
-279 -158 -395 -2 -75 0 -83 27 -118 15 -21 41 -46 57 -55 39 -24 151 -43 224
-39 69 4 71 5 104 128 11 41 36 131 56 200 20 69 41 139 45 155 5 17 23 79 40
139 31 105 31 110 14 123 -10 7 -23 13 -29 13 -6 0 -60 16 -119 35 -60 19
-114 35 -122 35 -7 0 -14 -14 -16 -32 l-3 -33 -100 -7 c-120 -8 -1085 -9
-1168 -1 -66 7 -71 12 -81 95 -5 50 -3 61 14 78 19 19 33 20 450 20 237 0 430
3 430 6 0 4 -13 22 -30 40 -68 78 -64 195 14 429 84 249 317 686 430 803 85
89 208 129 311 101z m-803 -199 c25 -26 29 -36 25 -63 -12 -67 -89 -522 -128
-752 -42 -248 -51 -277 -100 -302 -34 -18 -1769 -19 -1787 -1 -16 16 -15 50 2
74 14 18 29 19 303 20 417 0 380 -4 393 44 6 22 8 45 5 50 -4 6 -88 10 -209
10 -217 0 -226 2 -226 51 0 54 23 59 247 59 111 0 204 4 207 8 3 5 8 28 12 50
l7 42 -109 0 c-83 0 -115 4 -132 16 -29 20 -28 48 4 73 24 18 41 21 141 21 82
0 115 3 118 13 3 6 22 118 44 247 22 129 43 251 47 270 7 38 37 77 69 90 11 5
249 9 528 9 l509 1 30 -30z m2409 -2027 c56 -81 72 -136 73 -248 0 -162 -54
-287 -181 -412 -87 -86 -197 -145 -318 -169 -226 -47 -449 82 -503 291 -27
102 -25 110 43 146 17 9 65 35 107 58 l77 41 -1 -67 c-2 -148 81 -237 222
-237 200 -1 361 200 305 379 -14 44 -29 66 -68 100 l-49 43 43 25 c119 67 176
95 196 96 15 1 32 -13 54 -46z m-3476 -385 c2 -7 9 -33 15 -56 17 -66 80 -128
148 -148 66 -19 124 -14 196 19 58 27 124 89 152 144 10 21 24 41 29 45 15 11
213 9 220 -2 10 -17 -13 -83 -53 -149 -126 -209 -376 -338 -584 -301 -174 30
-294 134 -343 297 -15 49 -20 145 -8 156 3 4 55 7 115 7 78 0 110 -4 113 -12z"/>
<path d="M8480 10923 c-77 -119 -181 -324 -183 -360 -2 -30 -21 -21 353 -168
107 -42 212 -87 233 -101 68 -45 96 -156 63 -244 -15 -39 -176 -437 -196 -485
-77 -181 -110 -266 -110 -278 0 -11 14 -12 68 -5 372 47 563 381 562 988 0
142 -22 430 -35 449 -7 12 -355 51 -454 51 -59 0 -115 22 -135 53 -9 12 -29
56 -46 97 -48 117 -47 117 -120 3z"/>
<path d="M7004 11291 c-43 -26 -61 -79 -45 -132 14 -46 58 -74 166 -109 92
-30 105 -42 105 -98 0 -40 -5 -50 -40 -83 -39 -37 -52 -69 -29 -69 24 0 86 43
108 75 65 96 22 192 -93 210 -71 11 -132 35 -157 61 -46 49 -19 134 43 134 42
0 85 -48 58 -65 -16 -10 -11 -38 11 -65 20 -24 21 -24 35 -5 21 28 17 60 -11
105 -40 64 -91 77 -151 41z"/>
<path d="M6744 10998 c-6 -9 4 -14 63 -28 29 -6 72 -27 95 -44 54 -42 121 -76
148 -76 27 0 25 -8 -6 -32 -81 -64 -29 -158 89 -158 64 0 112 34 112 80 0 28
-4 35 -25 40 -35 8 -70 0 -70 -16 0 -8 6 -14 14 -14 23 0 30 -20 13 -37 -21
-22 -97 -21 -113 1 -13 19 -7 56 12 71 7 6 15 21 17 35 2 14 5 -6 6 -43 1 -59
3 -68 19 -65 14 3 17 14 17 64 0 58 2 62 43 100 36 35 42 47 42 82 0 35 -4 43
-23 47 -32 8 -448 2 -453 -7z"/>
<path d="M7308 10960 c-1 -28 -2 -50 -1 -50 1 0 19 11 39 25 20 14 55 30 78
35 61 16 66 18 66 30 0 6 -35 10 -89 10 l-89 0 -4 -50z"/>
<path d="M7076 10741 c-4 -7 -5 -15 -2 -18 9 -9 19 4 14 18 -4 11 -6 11 -12 0z"/>
<path d="M7030 10641 c0 -50 39 -73 145 -85 46 -5 48 -4 31 9 -11 8 -30 15
-41 15 -43 0 -85 21 -91 46 -4 14 -15 29 -25 35 -17 8 -19 6 -19 -20z"/>
<path d="M7104 10636 c-7 -19 3 -36 22 -36 10 0 14 8 12 22 -4 26 -26 36 -34
14z"/>
<path d="M7100 10528 c0 -20 -9 -27 -55 -41 -31 -9 -64 -17 -75 -17 -10 0 -22
-4 -25 -10 -4 -7 55 -10 169 -10 111 0 176 4 176 10 0 6 -11 10 -25 10 -13 0
-34 4 -47 9 -13 5 -35 12 -50 15 -18 4 -28 13 -30 28 -4 32 -38 37 -38 6z"/>
<path d="M8185 5428 c-3 -24 -4 -479 -3 -1013 l3 -970 153 -3 152 -3 0 546 c0
300 3 545 8 545 4 0 153 -236 331 -525 255 -412 327 -523 336 -513 7 7 144
227 305 488 161 261 305 495 321 520 l29 45 0 -552 0 -553 155 0 155 0 0 1015
c0 805 -3 1015 -12 1015 -7 0 -65 -80 -129 -178 -64 -97 -278 -421 -475 -720
l-357 -543 -233 353 c-605 918 -718 1088 -725 1088 -4 0 -10 -19 -14 -42z"/>
<path d="M6350 5445 c-331 -74 -610 -303 -743 -609 -61 -143 -81 -238 -81
-401 0 -161 19 -256 79 -395 90 -210 274 -409 470 -508 93 -46 182 -79 269
-99 97 -22 316 -21 414 1 152 34 311 119 425 227 l57 54 -53 70 c-28 39 -69
94 -90 124 l-38 53 -42 -39 c-91 -83 -226 -157 -337 -184 -74 -17 -211 -15
-290 5 -442 113 -672 590 -480 991 98 203 296 357 519 401 192 38 408 -27 579
-173 29 -25 54 -44 56 -42 1 2 42 58 90 123 l88 119 -44 39 c-117 104 -275
189 -436 234 -80 23 -325 28 -412 9z"/>
<path d="M2420 4435 l0 -995 155 0 155 0 0 385 0 385 124 0 124 0 267 -385
268 -385 188 0 c104 0 189 2 189 5 0 3 -125 177 -278 387 -153 211 -281 388
-285 394 -4 7 22 25 66 47 128 64 226 177 282 327 25 66 29 89 29 190 1 129
-11 176 -72 294 -65 124 -198 243 -331 296 -114 45 -172 50 -537 50 l-344 0 0
-995z m745 664 c113 -42 183 -118 211 -228 37 -148 -42 -298 -194 -369 -55
-26 -65 -27 -254 -30 l-198 -4 0 326 0 326 190 0 c167 0 196 -2 245 -21z"/>
<path d="M4110 4435 l0 -995 588 2 587 3 3 153 3 152 -436 0 -435 0 0 275 0
275 373 2 372 3 0 155 0 155 -372 3 -373 2 0 255 0 255 435 0 435 0 0 150 0
150 -590 0 -590 0 0 -995z"/>
<path d="M7490 4435 l0 -996 153 3 152 3 3 993 2 992 -155 0 -155 0 0 -995z"/>
<path d="M10520 4435 l0 -995 588 2 587 3 3 153 3 152 -436 0 -435 0 0 275 0
275 373 2 372 3 0 155 0 155 -372 3 -373 2 0 255 0 255 435 0 435 0 0 150 0
150 -590 0 -590 0 0 -995z"/>
<path d="M12030 4435 l0 -995 294 0 c162 0 340 5 397 10 479 48 779 307 874
755 24 109 24 340 1 459 -68 352 -281 602 -605 707 -157 50 -247 59 -623 59
l-338 0 0 -995z m785 661 c235 -65 400 -227 461 -456 25 -91 25 -311 1 -399
-63 -232 -205 -380 -431 -450 -83 -26 -264 -43 -406 -39 l-105 3 -3 670 c-1
369 0 676 3 684 8 20 398 10 480 -13z"/>
<path d="M6217 2896 c-103 -28 -172 -122 -172 -231 1 -126 93 -221 224 -232
48 -4 64 -1 110 24 30 15 56 33 57 38 2 6 -5 20 -14 33 l-18 23 -49 -25 c-57
-31 -86 -32 -141 -7 -57 26 -87 72 -92 140 -3 46 0 62 20 91 55 81 149 105
221 56 l36 -25 21 26 c24 30 16 44 -39 73 -51 25 -109 31 -164 16z"/>
<path d="M6512 2898 c-7 -7 -12 -22 -12 -35 0 -31 47 -44 67 -18 17 24 16 30
-3 49 -19 19 -36 20 -52 4z"/>
<path d="M8447 2868 l-25 -43 21 -3 c15 -3 31 7 54 35 40 47 41 53 4 53 -23 0
-34 -8 -54 -42z"/>
<path d="M8950 2824 l0 -85 -32 23 c-50 35 -132 33 -182 -6 -48 -36 -66 -79
-66 -154 0 -45 5 -67 23 -93 54 -80 148 -103 221 -54 34 23 36 23 36 5 0 -16
7 -20 30 -20 l30 0 0 235 0 235 -30 0 -30 0 0 -86z m-51 -120 c56 -40 62 -130
11 -179 -77 -74 -202 12 -171 116 21 70 103 102 160 63z"/>
<path d="M9110 2895 c-26 -32 13 -81 48 -59 34 22 22 74 -18 74 -10 0 -23 -7
-30 -15z"/>
<path d="M10936 2895 c-19 -20 -20 -26 -3 -49 26 -36 84 4 61 42 -15 23 -38
26 -58 7z"/>
<path d="M11510 2895 c-26 -32 13 -81 48 -59 34 22 22 74 -18 74 -10 0 -23 -7
-30 -15z"/>
<path d="M12300 2675 l0 -235 35 0 35 0 0 235 0 235 -35 0 -35 0 0 -235z"/>
<path d="M2930 2670 l0 -230 35 0 34 0 3 88 c3 86 3 87 30 90 23 3 33 -8 88
-87 l62 -91 45 0 45 0 -38 53 c-21 28 -48 66 -61 83 -29 39 -29 42 2 66 82 64
69 185 -25 235 -36 19 -59 23 -132 23 l-88 0 0 -230z m196 137 c20 -17 27 -33
27 -57 0 -48 -31 -70 -99 -70 l-54 0 0 68 c0 38 3 72 7 75 3 4 26 7 49 7 31 0
51 -7 70 -23z"/>
<path d="M7770 2669 l0 -230 37 3 37 3 -1 118 c0 64 3 117 6 117 3 0 38 -52
76 -115 39 -63 72 -115 75 -115 3 1 37 53 75 116 l70 115 3 -120 3 -121 34 0
35 0 0 230 c0 127 -1 230 -3 230 -2 0 -50 -72 -107 -160 -58 -88 -107 -160
-110 -160 -3 0 -52 72 -110 160 -58 88 -108 160 -112 160 -5 0 -8 -104 -8
-231z"/>
<path d="M10490 2671 l0 -231 98 0 c114 0 182 25 226 83 56 73 59 197 7 279
-43 68 -100 91 -228 96 l-103 4 0 -231z m218 135 c59 -30 87 -103 70 -178 -17
-77 -76 -118 -168 -118 l-50 0 0 161 0 162 58 -6 c32 -2 73 -12 90 -21z"/>
<path d="M4428 2823 c-2 -17 -12 -32 -25 -38 -31 -13 -33 -75 -4 -75 17 0 19
-10 22 -108 5 -123 18 -155 69 -166 53 -10 80 2 80 35 0 25 -4 29 -30 29 -41
0 -50 23 -50 124 l0 86 40 0 c39 0 40 1 40 35 0 34 -1 35 -40 35 -39 0 -40 1
-40 35 0 32 -2 35 -29 35 -25 0 -30 -4 -33 -27z"/>
<path d="M6680 2828 c0 -28 -10 -42 -33 -51 -26 -10 -19 -59 9 -67 20 -5 22
-12 23 -108 1 -57 7 -114 13 -127 25 -54 130 -56 136 -2 3 25 1 27 -33 27 -45
0 -55 23 -55 130 l0 79 43 3 c39 3 42 5 45 35 3 31 2 32 -40 35 -40 3 -43 5
-46 36 -3 28 -7 32 -33 32 -23 0 -29 -4 -29 -22z"/>
<path d="M11686 2819 c-4 -19 -13 -33 -26 -36 -29 -8 -29 -73 0 -73 19 0 20
-7 20 -95 0 -147 31 -195 116 -179 29 5 34 10 34 35 0 25 -4 29 -28 29 -45 0
-52 15 -52 116 l0 93 38 3 c34 3 37 6 40 36 3 31 2 32 -37 32 -40 0 -41 1 -41
35 0 32 -3 35 -29 35 -24 0 -29 -5 -35 -31z"/>
<path d="M3405 2776 c-38 -17 -80 -62 -94 -99 -28 -73 1 -175 60 -217 47 -34
132 -39 187 -11 46 23 52 39 24 64 -15 14 -21 15 -38 3 -33 -23 -72 -27 -108
-12 -31 13 -66 49 -66 68 0 5 59 8 131 8 l131 0 -4 55 c-5 59 -24 94 -70 128
-34 25 -113 32 -153 13z m131 -81 c14 -14 24 -33 22 -43 -3 -15 -16 -17 -92
-17 -103 0 -114 9 -68 55 40 40 101 42 138 5z"/>
<path d="M3785 2776 c-75 -35 -109 -94 -103 -180 4 -74 31 -117 88 -146 47
-24 129 -26 170 -5 35 18 36 22 12 53 -17 22 -18 22 -59 6 -39 -15 -44 -15
-79 2 -79 39 -94 126 -33 186 26 27 35 29 77 26 26 -3 54 -8 63 -12 11 -5 21
1 33 18 16 25 15 26 -10 42 -34 23 -121 28 -159 10z"/>
<path d="M4120 2779 c-125 -52 -147 -238 -38 -319 44 -32 131 -39 183 -15 45
22 53 40 30 65 -16 18 -21 18 -39 7 -36 -24 -74 -28 -110 -13 -31 13 -66 49
-66 68 0 5 59 8 131 8 l131 0 -4 55 c-5 59 -24 94 -70 128 -31 23 -111 32
-148 16z m125 -84 c14 -13 25 -33 25 -45 0 -20 -5 -21 -92 -18 -104 3 -115 12
-70 58 40 40 101 42 137 5z"/>
<path d="M4695 2768 c-116 -67 -112 -263 7 -324 44 -23 130 -15 162 15 23 22
23 22 29 2 4 -16 13 -21 36 -21 l31 0 0 170 0 170 -31 0 c-22 0 -32 -5 -36
-20 -5 -19 -6 -19 -33 2 -43 32 -116 34 -165 6z m161 -82 c39 -39 45 -86 19
-136 -19 -37 -43 -50 -95 -50 -58 0 -100 42 -100 99 0 51 15 83 48 104 45 28
89 22 128 -17z"/>
<path d="M5096 2775 c-39 -21 -55 -44 -56 -81 0 -44 27 -73 101 -109 53 -25
64 -34 64 -55 0 -38 -51 -49 -107 -21 -36 18 -45 19 -56 7 -40 -40 37 -91 126
-84 47 4 60 10 84 37 35 39 37 87 7 120 -12 13 -51 36 -86 52 -55 24 -64 32
-61 51 2 18 11 24 36 26 18 2 43 -3 56 -11 20 -13 25 -13 46 3 21 16 22 20 10
35 -36 44 -111 57 -164 30z"/>
<path d="M6965 2776 c-93 -42 -131 -153 -86 -252 23 -51 70 -85 126 -92 55 -6
90 3 116 29 l20 20 6 -20 c4 -15 13 -21 34 -21 l29 0 0 170 0 170 -29 0 c-20
0 -30 -6 -34 -20 -5 -20 -6 -20 -43 5 -41 28 -92 32 -139 11z m124 -70 c33
-18 51 -54 51 -107 0 -107 -149 -139 -199 -42 -22 44 -14 92 23 129 38 38 77
44 125 20z"/>
<path d="M7343 2771 c-88 -55 -67 -134 50 -186 68 -29 81 -45 63 -71 -19 -26
-87 -25 -116 1 -16 15 -25 17 -38 8 -48 -29 17 -93 95 -93 75 0 117 28 136 91
3 8 -1 29 -9 47 -10 25 -29 40 -89 69 -62 30 -75 40 -73 57 4 28 71 35 98 11
16 -14 19 -14 41 4 l24 20 -27 27 c-36 36 -109 44 -155 15z"/>
<path d="M8400 2779 c-96 -38 -138 -163 -87 -260 44 -83 150 -114 237 -69 44
22 48 34 24 61 -15 16 -18 16 -60 -3 -38 -16 -50 -17 -79 -8 -32 11 -75 51
-75 71 0 5 59 9 130 9 l130 0 0 49 c0 112 -116 191 -220 150z m126 -84 c42
-42 29 -57 -50 -62 -76 -5 -116 2 -116 18 0 6 13 24 29 40 39 39 100 41 137 4z"/>
<path d="M9339 2767 c-51 -27 -85 -72 -94 -126 -13 -75 30 -162 96 -196 37
-20 123 -19 165 1 39 19 40 21 15 51 -17 21 -20 21 -60 7 -35 -12 -46 -12 -75
0 -88 37 -101 146 -24 200 27 19 91 21 118 4 16 -11 22 -9 34 7 23 31 19 45
-19 61 -50 20 -106 17 -156 -9z"/>
<path d="M9690 2783 c-75 -31 -114 -99 -108 -190 4 -70 23 -103 79 -141 46
-32 136 -28 174 8 l25 23 0 -21 c0 -18 6 -22 35 -22 l35 0 0 170 0 170 -31 0
c-22 0 -32 -5 -36 -20 -5 -19 -6 -19 -33 2 -29 21 -110 33 -140 21z m136 -97
c26 -26 34 -42 34 -71 0 -70 -41 -114 -106 -115 -113 0 -151 152 -52 207 43
23 87 16 124 -21z"/>
<path d="M10060 2773 c-37 -26 -49 -45 -50 -79 0 -44 27 -73 101 -109 53 -25
64 -34 64 -55 0 -38 -51 -49 -106 -22 -40 20 -44 20 -61 5 -56 -50 102 -110
182 -68 64 33 80 103 33 147 -16 15 -54 38 -86 52 -49 22 -58 29 -55 48 2 18
10 24 36 26 18 2 43 -3 56 -11 20 -13 25 -13 46 3 21 16 22 20 10 35 -37 45
-125 59 -170 28z"/>
<path d="M11165 2775 c-71 -38 -95 -83 -95 -173 0 -68 23 -112 79 -149 44 -30
113 -31 160 -2 18 11 36 18 38 15 12 -12 -22 -68 -48 -81 -37 -20 -109 -19
-137 1 -22 15 -25 15 -47 -6 -29 -28 -25 -36 29 -61 88 -40 203 -13 248 59 21
34 23 50 26 220 l4 182 -36 0 c-30 0 -36 -4 -36 -21 0 -20 0 -20 -31 2 -41 29
-114 35 -154 14z m144 -81 c36 -30 48 -78 31 -128 -30 -92 -158 -91 -197 2
-44 105 79 199 166 126z"/>
<path d="M11965 2775 c-71 -38 -95 -83 -95 -173 0 -45 5 -67 23 -93 54 -80
148 -103 221 -54 34 23 36 23 36 5 0 -16 7 -20 35 -20 l35 0 0 170 0 170 -35
0 c-29 0 -35 -4 -35 -20 0 -20 0 -20 -29 1 -39 29 -116 36 -156 14z m144 -81
c36 -30 48 -78 31 -128 -14 -43 -48 -66 -97 -66 -75 0 -123 66 -103 140 21 77
109 105 169 54z"/>
<path d="M12535 2776 c-39 -18 -70 -52 -90 -98 -50 -121 33 -248 160 -247 60
0 120 26 120 53 0 28 -29 43 -57 29 -43 -22 -67 -24 -101 -9 -31 13 -67 49
-67 68 0 5 59 8 130 8 l130 0 0 49 c0 53 -25 99 -72 134 -34 25 -113 32 -153
13z m130 -81 c14 -13 25 -33 25 -45 0 -20 -5 -21 -92 -18 -55 2 -93 7 -95 14
-2 6 10 25 26 43 38 41 99 44 136 6z"/>
<path d="M12869 2767 c-42 -28 -57 -73 -38 -113 10 -21 35 -39 86 -64 82 -39
95 -56 61 -83 -28 -23 -81 -17 -113 13 -22 20 -22 20 -40 1 -55 -62 107 -123
191 -72 19 12 37 34 44 55 18 54 -2 84 -82 126 -86 45 -95 54 -78 75 17 20 69
19 92 -2 18 -16 20 -16 39 3 25 26 17 48 -26 68 -47 22 -96 20 -136 -7z"/>
<path d="M5490 2777 c0 -2 29 -72 65 -155 36 -84 65 -157 65 -163 0 -5 -13
-42 -30 -80 l-30 -70 37 3 37 3 98 225 c54 124 98 228 98 233 0 4 -15 7 -33 7
-34 0 -34 -1 -83 -115 -27 -63 -52 -115 -55 -115 -4 0 -26 51 -51 113 l-43
112 -38 3 c-20 2 -37 1 -37 -1z"/>
<path d="M6500 2610 l0 -170 35 0 35 0 0 170 0 170 -35 0 -35 0 0 -170z"/>
<path d="M9110 2610 l0 -170 30 0 30 0 0 170 0 170 -30 0 -30 0 0 -170z"/>
<path d="M10930 2610 l0 -170 35 0 35 0 0 170 0 170 -35 0 -35 0 0 -170z"/>
<path d="M11510 2611 l0 -171 36 0 35 0 -3 168 -3 167 -32 3 -33 3 0 -170z"/>
</g>
</svg>
